<?xml version="1.0" encoding="utf-8"?>
<!-- Generator: Adobe Illustrator 21.0.0, SVG Export Plug-In . SVG Version: 6.00 Build 0)  -->
<svg version="1.1" id="Layer_1" xmlns="http://www.w3.org/2000/svg" xmlns:xlink="http://www.w3.org/1999/xlink" x="0px" y="0px"
	 viewBox="0 0 90.7 23.3" style="enable-background:new 0 0 90.7 23.3;" xml:space="preserve">
<style type="text/css">
	.st0{fill:#F2F2F2;}
	.st1{fill:#E02451;}
	.st2{fill:none;}
</style>
<g>
	<g>
		<path class="st0" d="M41.2,16.8c-1.1-0.5-1.9-1.2-2.5-2.1c-0.2,0.4-0.6,0.9-1.1,1.4c-0.5,0.5-1,0.9-1.5,1.1l-1-1
			c0.8-0.3,1.5-0.8,2-1.5s0.8-1.4,0.8-2.1v-0.7h-2.3v-1.2h6.1v1.2h-2.3v0.6c0,0.7,0.3,1.3,0.8,1.9s1.2,1,2,1.2L41.2,16.8z M37.5,21
			v-3.8H39v2.5h6V21H37.5z M43.4,18.2v-4h-2.2V13h2.2v-2.9h1.4v8.1H43.4z"/>
		<path class="st0" d="M54.7,21.4v-2.6h-6.1v-1.2h3.1v-0.9h-4.5v-1.2h10.5v1.2h-4.5v0.9h3v3.9H54.7z M48.8,14.5v-4.3h1.5v1h4.4v-1
			h1.5v4.3H48.8z M54.7,12.5h-4.4v0.8h4.4V12.5z"/>
		<path class="st0" d="M66.7,21.4v-2.6h-6.1v-1.2h3.1v-1h-4.5v-1.2h10.5v1.2h-4.5v1h3v3.9H66.7z M68.6,14.7
			c-0.8-0.1-1.6-0.3-2.4-0.6s-1.4-0.7-1.8-1c-0.4,0.4-1,0.7-1.8,1s-1.6,0.5-2.5,0.6l-0.8-1.2c0.9,0,1.7-0.1,2.5-0.4s1.3-0.6,1.6-1
			h-3.2V11h3.4v-1h1.5v1h3.3v1.2h-3.2c0.3,0.4,0.8,0.8,1.6,1s1.6,0.4,2.4,0.4L68.6,14.7z"/>
		<path class="st0" d="M75.9,18.5c-0.3-0.2-0.7-0.6-1.1-1.1s-0.7-0.9-0.8-1.2c-0.2,0.4-0.5,0.9-0.9,1.4s-0.8,0.9-1.2,1.2L70.9,18
			c0.8-0.5,1.4-1.2,1.8-1.9c0.4-0.8,0.6-1.6,0.6-2.5v-1.2h-1.9V11h5.1v1.2h-1.7v1.4c0,0.8,0.2,1.5,0.6,2.2c0.4,0.7,0.9,1.3,1.6,1.7
			L75.9,18.5z M77.3,21.1V15h-1.6v-1.2h1.6v-3.5h1.5v10.7H77.3z M79.6,21.4V10.1h1.5v11.3H79.6z"/>
	</g>
	<g>
		<path class="st1" d="M79.9,7.8c-0.7-0.2-1.2-0.6-1.5-1.1c-0.3-0.6-0.4-1.2-0.2-2C78.4,4,78.8,3.4,79.3,3c0.6-0.4,1.2-0.4,2-0.3
			C82,3,82.5,3.3,82.8,3.9c0.3,0.6,0.4,1.2,0.2,2c-0.2,0.8-0.6,1.3-1.2,1.7C81.3,7.9,80.6,8,79.9,7.8z M81,3.7c-0.4-0.1-0.7,0-1,0.2
			c-0.3,0.2-0.5,0.6-0.6,1.1c-0.1,0.5-0.1,0.9,0,1.2c0.2,0.3,0.4,0.6,0.8,0.7c0.4,0.1,0.7,0,1-0.2c0.3-0.2,0.5-0.6,0.6-1.1
			c0.1-0.5,0.1-0.9,0-1.3C81.7,4,81.4,3.8,81,3.7z"/>
		<path class="st1" d="M86.4,9.4l-1.1-0.3l0.5-1.9c0.1-0.5,0-0.9-0.4-1c-0.2,0-0.4,0-0.5,0.1c-0.2,0.1-0.3,0.3-0.3,0.5l-0.5,2
			l-1.1-0.3L84,5.1L85,5.3l-0.1,0.6l0,0c0.4-0.4,0.8-0.5,1.3-0.3c0.8,0.2,1,0.8,0.8,1.7L86.4,9.4z"/>
		<path class="st1" d="M88,9.9c-0.2,0-0.3-0.1-0.4-0.3c-0.1-0.1-0.1-0.3-0.1-0.4c0-0.2,0.1-0.3,0.3-0.4c0.1-0.1,0.3-0.1,0.5,0
			c0.2,0,0.3,0.1,0.4,0.3c0.1,0.1,0.1,0.3,0.1,0.4c0,0.2-0.1,0.3-0.3,0.4C88.3,9.9,88.2,10,88,9.9z M89.8,5.1l-1,3.3l-0.9-0.2
			l0.7-3.4L89.8,5.1z"/>
	</g>
	<g>
		<path class="st2" d="M15.7,10.7c0.6,0,1.1-0.3,1.4-0.8c0.1-0.2,0.2-0.5,0.2-0.8c0-0.9-0.7-1.7-1.7-1.7C14.8,7.3,14,8.1,14,9
			c0,0.3,0.1,0.6,0.2,0.8C14.5,10.3,15.1,10.7,15.7,10.7z M15.7,8.2c0.5,0,0.8,0.4,0.8,0.8s-0.4,0.8-0.8,0.8c-0.5,0-0.8-0.4-0.8-0.8
			S15.2,8.2,15.7,8.2z"/>
		<path class="st2" d="M17.6,11.5h-1.9h-1.9c-0.3,0-0.6,0.3-0.6,0.6v3.9c0,0.3,0.3,0.6,0.6,0.6h3.9c0.3,0,0.6-0.3,0.6-0.6v-3.9
			C18.2,11.7,17.9,11.5,17.6,11.5z"/>
		<path class="st2" d="M11,11.5H7.1c-0.3,0-0.6,0.3-0.6,0.6v3.9c0,0.3,0.3,0.6,0.6,0.6H11c0.3,0,0.6-0.3,0.6-0.6v-3.9
			C11.5,11.7,11.3,11.5,11,11.5z"/>
		<path class="st2" d="M27,12c-0.2-0.1-0.5,0-0.5,0.3v3.5c0,0.4,0.3,0.7,0.6,0.8l2.5,0.7c0.5,0,0.8-0.4,0.6-0.9
			C29.7,14.6,28.5,13.1,27,12z"/>
		<path class="st2" d="M24.3,11.5h-3.9c-0.3,0-0.6,0.3-0.6,0.6v3.9c0,0.3,0.3,0.6,0.6,0.6h3.9c0.3,0,0.6-0.3,0.6-0.6v-3.9
			C24.9,11.7,24.6,11.5,24.3,11.5z"/>
		<path class="st1" d="M31.4,16.5c-0.5-2.4-2-4.4-4-5.6c-1.2-0.7-2.6-1.1-4.1-1.1h-1.7V9h-3.3c0-0.7-0.3-1.3-0.7-1.7l2.4-2.8
			l0.3,0.3l1.6-1.9l-1.3-1.1l-1.6,1.9l0.3,0.3l-2.4,2.9c-0.3-0.2-0.7-0.3-1.2-0.3c-1.4,0-2.5,1.1-2.5,2.5h-2.5v0.8H6.5
			c-0.9,0-1.7,0.7-1.7,1.7v8.3c0,0.9,0.7,1.7,1.7,1.7h0.8c0-1.4,1.1-2.5,2.5-2.5s2.5,1.1,2.5,2.5h8.3c0-1.4,1.1-2.5,2.5-2.5
			s2.5,1.1,2.5,2.5h4.2c0.9,0,1.7-0.7,1.7-1.7v-1.7C31.5,17.5,31.5,17,31.4,16.5z M11.5,15.9c0,0.3-0.3,0.6-0.6,0.6H7.1
			c-0.3,0-0.6-0.3-0.6-0.6v-3.9c0-0.3,0.3-0.6,0.6-0.6H11c0.3,0,0.6,0.3,0.6,0.6V15.9z M15.7,7.3c0.9,0,1.7,0.7,1.7,1.7
			c0,0.3-0.1,0.6-0.2,0.8c-0.3,0.5-0.8,0.8-1.4,0.8c-0.6,0-1.1-0.3-1.4-0.8C14.1,9.6,14,9.3,14,9C14,8.1,14.8,7.3,15.7,7.3z
			 M18.2,15.9c0,0.3-0.3,0.6-0.6,0.6h-3.9c-0.3,0-0.6-0.3-0.6-0.6v-3.9c0-0.3,0.3-0.6,0.6-0.6h1.9h1.9c0.3,0,0.6,0.3,0.6,0.6V15.9z
			 M24.9,15.9c0,0.3-0.3,0.6-0.6,0.6h-3.9c-0.3,0-0.6-0.3-0.6-0.6v-3.9c0-0.3,0.3-0.6,0.6-0.6h3.9c0.3,0,0.6,0.3,0.6,0.6V15.9z
			 M29.7,17.3l-2.5-0.7c-0.4-0.1-0.6-0.4-0.6-0.8v-3.5c0-0.2,0.3-0.4,0.5-0.3c1.6,1,2.8,2.6,3.3,4.4C30.4,16.9,30.1,17.3,29.7,17.3z
			"/>
		<circle class="st1" cx="9.9" cy="21.5" r="1.7"/>
		<circle class="st1" cx="23.2" cy="21.5" r="1.7"/>
		<circle class="st1" cx="15.7" cy="9" r="0.8"/>
		<path class="st1" d="M7.1,7.4C6.9,5.3,8.7,3,10.4,2c2-1.1,4.2-1.1,6.2-0.1C17,2,17.3,1.5,17,1.3c-2.2-1-4.7-1.1-6.9,0.1
			c-2,1.1-3.8,3.6-3.6,6C6.5,7.8,7.1,7.8,7.1,7.4z"/>
		<path class="st1" d="M9.3,8.2C9.3,8.6,9.9,8.7,9.9,8.3c0.5-2.9,3-5,6-4c0.4,0.1,0.5-0.5,0.2-0.6C12.8,2.6,9.9,5,9.3,8.2z"/>
	</g>
</g>
</svg>
